# xmcd
#
# Track frame offsets: 
#        150
#        12755
#        23235
#        39532
#        53707
#        68412
#        80090
#        97485
#        110190
#        124050
#        133732
#        140197
#        158387
#        167060
#
# Disc length: 2397 seconds
#
# Revision: 5
# Processed by: cddbd v1.5.2PL0 Copyright (c) Steve Scherf et al.
# Submitted via: ExactAudioCopy v0.99pb5
#
DISCID=c2095b0e
DTITLE=Eric Clapton And Friends - Eric Clapton And Friends
DYEAR=1995
DGENRE=
TTITLE0=John Mayall and The Bluesbreakers - On Top Of The World
TTITLE1=T.S. McPhee - Someone To Love Me
TTITLE2=Savoy Brown Blues Band - Can't Quit You Baby
TTITLE3=Eric Clapton and Jimmy Page - Draggin' My Tail
TTITLE4=Dharma Blues Band - Dealing With The Devil
TTITLE5=Jeremy Spencer - Who's Knocking
TTITLE6=Albert Lee - The Next Milestone
TTITLE7=Eric Clapton and Jimmy Page - Freight Loader
TTITLE8=Jeremy Spencer - Look Down At My Woman
TTITLE9=Dharma Blues Band - Roll'em Pete
TTITLE10=Eric Clapton and Jimmy Page - Choker
TTITLE11=Savoy Brown Blues Band - True Blue
TTITLE12=T.S. McPhee - When You Got A Good Friend
TTITLE13=Fleetwood Mac - Man Of The World
EXTD=
EXTT0=John Mayall and The Bluesbrakers\n
EXTT1=T.S.McPhee\n
EXTT2=Savoy Brown Blues Band\n
EXTT3=Eric Clapton and Jimmy Page\n
EXTT4=Dharma Blues Band\n
EXTT5=Jeremy Spencer\n
EXTT6=Albert Lee\n
EXTT7=Eric Clapton and Jimmy Page\n
EXTT8=Jeremy Spencer\n
EXTT9=Dharma Blues Band\n
EXTT10=Eric Clapton and Jimmy Page\n
EXTT11=Savoy Brown Blues Band\n
EXTT12=T.S.McPhee\n
EXTT13=Fleetwood Mac\n
PLAYORDER=
